<?xml version="1.0" standalone="no"?>
<!DOCTYPE svg PUBLIC "-//W3C//DTD SVG 20010904//EN"
 "http://www.w3.org/TR/2001/REC-SVG-20010904/DTD/svg10.dtd">
<svg version="1.0" xmlns="http://www.w3.org/2000/svg"
 width="192.000000pt" height="192.000000pt" viewBox="0 0 192.000000 192.000000"
 preserveAspectRatio="xMidYMid meet">
<metadata>
Created by potrace 1.14, written by Peter Selinger 2001-2017
</metadata>
<g transform="translate(0.000000,192.000000) scale(0.100000,-0.100000)"
fill="#000000" stroke="none">
<path d="M193 1666 l-28 -24 0 -432 0 -432 28 -24 27 -23 706 0 c510 -1 712 3
728 11 46 24 45 21 46 469 0 406 -1 428 -19 450 l-19 24 -720 3 -720 2 -29
-24z m527 -91 c0 -8 4 -14 8 -13 11 4 62 -56 62 -71 0 -6 -13 -11 -30 -11 -28
0 -30 3 -31 38 -2 31 -3 32 -6 9 -4 -25 -7 -27 -20 -15 -15 12 -15 11 -5 -9
11 -20 9 -22 -16 -26 -26 -4 -25 -4 5 -6 l32 -1 0 -245 1 -245 -28 -1 -27 -2
28 -4 c16 -3 27 -11 28 -21 1 -15 2 -15 6 1 6 23 73 25 73 1 0 -8 5 -12 10 -9
6 4 8 11 5 16 -4 5 50 9 134 9 l141 0 2 -62 1 -63 6 52 6 53 24 -35 c13 -20
26 -33 29 -31 2 3 -10 23 -28 46 l-32 40 36 0 36 0 0 -62 c0 -35 4 -57 8 -51
5 7 7 31 6 53 -1 40 -1 41 19 23 20 -18 20 -18 2 10 -17 27 -17 27 6 28 l24 1
-25 7 -25 7 0 242 0 242 25 1 25 1 -25 7 c-22 6 -25 12 -26 59 l-1 52 196 0
197 0 -1 -375 0 -375 -645 2 -645 3 -1 373 0 372 218 0 c187 0 218 -2 218 -15z
m80 -25 c0 -22 -1 -40 -3 -40 -2 0 -18 18 -36 40 l-32 40 36 0 c34 0 35 -1 35
-40z m290 -15 l0 -55 -138 0 -137 0 -3 55 -2 55 140 0 140 0 0 -55z m80 0 l0
-55 -35 0 -35 0 0 55 0 55 35 0 35 0 0 -55z m-80 -247 c0 -112 -4 -178 -9
-172 -5 5 -66 87 -135 182 l-125 172 134 0 135 0 0 -182z m-117 -160 l107
-149 -132 3 -133 3 -1 179 -1 180 26 -34 c14 -18 74 -100 134 -182z"/>
<path d="M1360 1525 c-10 -27 -20 -31 -36 -15 -8 8 -15 6 -23 -4 -8 -9 -8 -16
-2 -20 16 -10 1 -36 -20 -36 -22 0 -26 -25 -6 -37 21 -12 28 -41 12 -47 -19
-7 -7 -37 14 -35 32 3 39 -1 34 -20 -7 -26 17 -38 33 -17 14 19 34 14 34 -9 0
-8 9 -13 20 -12 12 1 20 8 20 19 0 22 18 32 34 19 10 -8 16 -8 25 3 8 10 9 16
1 21 -20 12 -10 35 15 35 19 0 25 5 25 21 0 11 -4 18 -9 14 -6 -3 -15 4 -22
16 -9 18 -8 24 4 31 20 11 11 39 -12 37 -32 -3 -39 1 -34 20 6 25 -12 35 -37
19 -18 -11 -23 -10 -31 5 -14 24 -28 21 -39 -8z m72 -82 c39 -45 -20 -104 -64
-65 -22 19 -23 46 -2 66 20 21 47 20 66 -1z"/>
<path d="M420 1141 c0 -21 -26 -36 -36 -20 -4 6 -11 6 -20 -2 -11 -9 -11 -15
-3 -25 14 -17 3 -34 -22 -34 -25 0 -24 -21 2 -43 19 -17 19 -20 5 -35 -17 -19
-8 -45 15 -42 33 5 40 0 30 -19 -14 -25 18 -40 35 -16 11 14 13 14 29 -2 24
-24 45 -25 45 -3 0 24 17 35 34 21 10 -8 16 -8 25 3 8 10 9 16 1 21 -17 11
-11 25 15 35 29 11 33 30 7 37 -22 5 -26 39 -6 47 21 8 5 37 -19 34 -15 -2
-23 3 -25 17 -6 31 -18 38 -41 23 -19 -11 -23 -11 -32 5 -13 23 -39 22 -39 -2z
m72 -88 c8 -10 13 -24 12 -30 -1 -7 -2 -17 -3 -23 0 -5 -10 -14 -22 -20 -16
-9 -26 -8 -45 5 -28 18 -31 41 -7 67 20 23 46 23 65 1z"/>
<path d="M723 890 c0 -25 2 -35 4 -22 2 12 2 32 0 45 -2 12 -4 2 -4 -23z"/>
<path d="M800 920 c0 -5 5 -10 10 -10 6 0 10 5 10 10 0 6 -4 10 -10 10 -5 0
-10 -4 -10 -10z"/>
<path d="M800 889 c0 -5 5 -7 10 -4 6 3 10 8 10 11 0 2 -4 4 -10 4 -5 0 -10
-5 -10 -11z"/>
<path d="M805 860 c3 -5 8 -10 11 -10 2 0 4 5 4 10 0 6 -5 10 -11 10 -5 0 -7
-4 -4 -10z"/>
<path d="M186 671 c-7 -9 -47 -82 -88 -163 -58 -113 -71 -148 -59 -149 91 -3
1843 0 1847 4 3 3 -10 27 -28 54 -19 26 -67 95 -107 153 -41 58 -75 107 -77
109 -3 3 -335 5 -739 6 -655 1 -737 0 -749 -14z m1074 -31 l325 0 53 -74 c28
-41 52 -78 52 -83 0 -9 -1478 -9 -1487 1 -6 6 48 126 67 151 5 6 127 9 337 8
180 -1 474 -3 653 -3z m-130 -219 c5 -11 10 -21 10 -23 0 -2 -85 -3 -190 -3
-104 0 -190 1 -190 3 0 2 5 12 10 23 10 18 23 19 180 19 157 0 170 -1 180 -19z"/>
<path d="M17 303 c-9 -9 -9 -55 1 -70 5 -8 243 -11 939 -11 1013 -1 958 -4
951 55 l-3 28 -941 3 c-517 1 -944 -1 -947 -5z"/>
</g>
</svg>
